<?xml version="1.0" standalone="no"?>
<!DOCTYPE svg PUBLIC "-//W3C//DTD SVG 20010904//EN"
 "http://www.w3.org/TR/2001/REC-SVG-20010904/DTD/svg10.dtd">
<svg version="1.0" xmlns="http://www.w3.org/2000/svg"
 width="1024.000000pt" height="1024.000000pt" viewBox="0 0 1024.000000 1024.000000"
 preserveAspectRatio="xMidYMid meet">
<metadata>
Created by potrace 1.14, written by Peter Selinger 2001-2017
</metadata>
<g transform="translate(0.000000,1024.000000) scale(0.100000,-0.100000)"
fill="#000000" stroke="none">
<path d="M1060 9905 c-73 -23 -149 -67 -186 -107 -19 -20 -34 -41 -34 -46 0
-4 -8 -17 -18 -28 -10 -10 -19 -23 -20 -29 -1 -5 -9 -31 -18 -57 -8 -25 -17
-59 -20 -75 -22 -111 -30 -191 -29 -259 2 -86 15 -225 21 -235 2 -4 6 -27 9
-50 3 -24 12 -82 20 -129 8 -47 17 -98 20 -115 5 -29 22 -129 30 -170 2 -11 4
-20 5 -20 3 0 11 -69 12 -102 1 -18 5 -33 10 -33 5 0 4 -8 -1 -18 -5 -10 -6
-24 -1 -32 4 -7 7 -18 5 -24 -2 -6 -6 -47 -9 -91 -3 -44 -8 -90 -11 -102 -3
-13 -7 -31 -9 -42 -7 -31 -46 -163 -66 -221 -10 -30 -44 -136 -75 -235 -73
-232 -144 -446 -153 -465 -5 -8 -17 -42 -27 -75 -11 -33 -24 -63 -30 -67 -5
-4 -7 -8 -3 -8 6 0 -14 -73 -32 -115 -13 -29 -62 -187 -64 -205 -1 -9 -6 -21
-10 -28 -4 -7 -10 -28 -13 -45 -3 -18 -9 -37 -14 -43 -5 -7 -9 -16 -8 -20 2
-5 -4 -29 -11 -54 -16 -52 -13 -43 -28 -100 -7 -25 -19 -67 -27 -95 -8 -27
-19 -70 -24 -95 -7 -34 -34 -147 -40 -167 -1 -2 -1 -4 -2 -5 0 -2 -2 -10 -4
-18 -1 -8 -8 -40 -14 -70 -6 -30 -13 -66 -16 -80 -2 -14 -9 -45 -15 -70 -10
-48 -18 -87 -26 -135 -3 -16 -12 -65 -20 -108 -7 -44 -11 -83 -8 -88 3 -5 1
-9 -3 -9 -5 0 -10 -10 -10 -22 -1 -13 -4 -39 -8 -58 -3 -19 -7 -53 -10 -75 -2
-22 -7 -51 -10 -65 -2 -13 -7 -54 -11 -90 -3 -36 -8 -67 -9 -70 -2 -3 -6 -44
-10 -90 -3 -47 -8 -102 -10 -123 -25 -245 -26 -1066 0 -1292 2 -22 6 -76 10
-120 3 -44 7 -98 10 -120 2 -22 7 -62 10 -90 2 -27 7 -66 9 -85 5 -33 11 -82
23 -180 3 -25 6 -53 6 -62 1 -10 5 -18 10 -18 4 0 6 -4 2 -10 -5 -8 -1 -42 20
-155 3 -16 8 -46 11 -65 4 -19 8 -46 10 -60 2 -14 6 -32 7 -40 5 -22 17 -82
21 -110 3 -14 5 -25 6 -25 1 0 3 -11 6 -25 3 -20 43 -197 49 -220 1 -3 5 -18
9 -35 4 -16 22 -75 39 -130 17 -55 32 -102 32 -105 1 -3 9 -21 17 -40 21 -49
31 -73 33 -85 5 -19 109 -230 144 -290 19 -33 35 -62 35 -65 0 -3 19 -33 43
-67 24 -34 43 -64 43 -67 0 -9 111 -170 125 -181 6 -5 20 -23 30 -38 46 -71
218 -244 351 -355 102 -83 336 -231 376 -236 3 -1 10 -4 14 -8 4 -5 16 -8 26
-8 10 0 18 -4 18 -8 0 -5 6 -9 13 -9 6 -1 37 -11 67 -23 72 -29 257 -84 315
-95 11 -2 30 -6 41 -8 12 -3 38 -8 58 -11 20 -3 53 -9 73 -12 21 -4 49 -8 63
-9 14 -2 25 -4 25 -5 0 -3 90 -9 220 -14 66 -3 120 -5 120 -6 0 -1 72 -4 160
-7 214 -8 498 -8 675 1 80 4 208 9 285 11 152 4 302 12 405 20 36 3 92 7 125
10 33 3 72 7 87 10 14 3 55 7 90 10 34 2 63 5 63 6 0 0 11 2 25 4 14 2 42 6
63 9 20 3 52 8 70 11 17 2 41 6 52 8 66 13 102 20 120 23 19 2 86 16 145 29
14 3 36 7 50 10 14 3 36 7 50 11 14 3 54 12 90 20 36 8 74 16 85 19 11 3 31 7
45 11 42 9 55 12 58 14 1 2 5 3 10 4 35 9 70 17 87 20 11 3 76 21 145 41 69
21 130 38 135 39 6 1 16 5 23 9 6 5 12 5 12 1 0 -3 7 -1 15 6 8 7 15 10 15 7
0 -3 84 24 188 60 103 35 192 65 197 67 6 1 20 7 32 14 12 7 30 13 40 15 10 2
32 9 48 16 17 7 31 12 32 12 2 0 51 24 111 54 132 66 194 124 245 228 20 41
38 86 41 100 2 15 7 30 10 35 8 13 17 72 20 128 2 28 6 56 10 62 3 6 2 14 -4
17 -6 4 -7 12 -3 18 10 13 9 56 -2 127 -11 76 -58 200 -75 200 -6 0 -10 5 -10
12 0 27 -186 167 -212 160 -5 -1 -8 2 -8 7 0 5 -15 13 -32 16 -18 4 -37 11
-43 15 -8 6 -46 18 -75 24 -10 2 -105 28 -119 32 -22 7 -9 13 50 24 30 6 65
13 79 16 56 12 76 16 95 18 11 2 27 6 35 9 8 3 41 13 73 22 31 9 57 21 57 27
0 6 3 9 6 5 6 -5 36 9 130 61 36 20 186 167 178 175 -4 4 -2 7 4 7 6 0 14 9
17 20 3 11 12 26 18 33 29 31 77 148 93 227 10 45 10 223 2 277 -24 147 -160
300 -339 381 -54 25 -104 42 -124 43 -3 0 -22 6 -44 14 -61 21 -160 35 -273
38 -79 1 -84 10 -14 21 21 4 43 9 50 13 6 4 20 9 31 11 11 1 37 11 58 22 21
11 42 20 48 20 5 0 15 5 22 10 7 6 35 25 62 43 91 59 197 159 241 228 15 24
32 47 38 51 6 4 7 8 3 8 -5 0 0 12 11 28 20 28 54 111 52 126 -1 5 3 12 8 15
6 4 13 20 16 36 2 17 5 31 6 33 2 1 4 7 5 12 1 6 3 11 5 13 21 26 30 360 10
385 -2 1 -3 5 -5 10 -1 4 -5 15 -8 25 -4 9 -10 25 -14 35 -3 9 -7 19 -8 22
-12 35 -26 60 -35 60 -5 0 -10 6 -10 14 0 18 -140 147 -152 140 -4 -3 -8 -1
-8 4 0 8 -93 43 -155 58 -16 4 -55 8 -85 9 -30 1 -74 5 -97 9 -23 4 -66 9 -95
11 -155 12 -193 16 -265 31 -42 9 -86 20 -97 26 -18 10 -18 11 -2 20 10 6 23
11 29 12 7 2 30 6 52 11 22 4 47 9 55 11 8 1 67 15 130 30 63 14 121 27 128
27 6 0 12 3 12 7 0 4 6 7 13 7 6 0 32 6 57 13 25 8 48 13 53 12 4 -1 7 2 7 6
0 5 6 9 13 9 6 1 83 26 171 57 87 30 162 53 166 51 5 -3 10 -1 12 5 1 5 15 11
31 12 15 1 27 6 27 10 0 4 10 8 23 8 13 0 28 5 35 12 7 7 12 9 12 6 0 -4 24 1
53 11 28 10 55 19 60 20 4 0 8 1 10 2 1 0 9 2 17 4 8 2 62 17 120 34 57 16
108 27 112 25 4 -3 8 -1 8 4 0 5 6 9 13 10 21 1 70 13 79 18 5 3 21 8 36 10
15 3 59 14 97 24 73 19 301 78 332 85 10 3 38 10 63 16 25 6 54 13 65 14 11 2
20 4 20 5 0 2 27 9 165 40 52 12 156 37 230 56 177 46 173 45 190 48 15 2 101
28 245 73 44 14 87 26 95 28 8 2 39 12 68 24 28 11 52 18 52 15 0 -4 7 0 17 7
9 8 18 13 20 12 1 -2 4 -3 6 -2 1 0 9 2 17 4 24 6 254 91 276 103 10 5 23 10
27 10 4 0 34 10 65 23 55 21 85 34 184 77 25 11 49 18 52 14 3 -3 6 0 6 6 0 7
6 12 13 12 6 0 24 6 39 14 14 8 42 19 62 26 20 6 36 16 36 21 0 5 6 9 14 9 27
0 186 104 186 122 0 4 4 8 10 8 12 0 70 58 126 127 38 46 68 99 80 138 40 133
41 228 3 301 -21 43 -104 126 -125 127 -5 1 -19 6 -32 13 -13 6 -37 11 -53 10
-16 -1 -29 0 -29 3 0 10 -145 6 -152 -4 -5 -7 -8 -6 -8 1 0 7 -48 10 -140 10
-77 -1 -140 -4 -140 -8 0 -4 -13 -3 -29 2 -16 4 -31 6 -33 4 -2 -2 -38 -6 -79
-9 -109 -7 -208 -16 -227 -20 -9 -1 -46 -6 -82 -10 -36 -4 -72 -8 -80 -10 -21
-4 -87 -14 -135 -20 -23 -3 -50 -7 -60 -9 -18 -3 -124 -17 -167 -22 -10 -1
-19 -2 -20 -4 -5 -3 -42 -10 -83 -15 -22 -3 -50 -7 -62 -10 -13 -3 -31 -7 -40
-9 -22 -5 -101 -18 -128 -22 -11 -1 -36 -5 -55 -8 -37 -7 -137 -24 -180 -31
-14 -3 -36 -7 -50 -9 -14 -3 -41 -8 -60 -10 -19 -3 -46 -8 -60 -10 -14 -3 -41
-7 -60 -10 -19 -3 -44 -7 -55 -10 -11 -2 -40 -7 -65 -10 -25 -3 -54 -8 -65
-10 -18 -3 -93 -15 -140 -22 -11 -2 -33 -5 -50 -7 -16 -2 -50 -8 -75 -12 -25
-4 -56 -9 -70 -10 -14 -1 -38 -5 -55 -8 -16 -4 -48 -9 -70 -12 -23 -3 -50 -7
-60 -9 -11 -2 -45 -7 -75 -11 -30 -4 -62 -9 -70 -10 -8 -2 -37 -6 -65 -9 -27
-4 -63 -9 -79 -12 -16 -3 -48 -7 -70 -9 -23 -2 -59 -7 -81 -10 -22 -3 -53 -8
-70 -11 -16 -2 -50 -7 -75 -10 -25 -2 -52 -7 -60 -9 -8 -2 -42 -7 -75 -10 -33
-3 -71 -8 -85 -10 -73 -11 -90 -14 -145 -20 -33 -4 -76 -9 -95 -12 -19 -2 -46
-6 -60 -8 -14 -1 -45 -6 -70 -10 -25 -4 -65 -8 -90 -10 -25 -2 -45 -4 -45 -5
0 -3 -42 -9 -95 -14 -30 -3 -71 -8 -92 -11 -20 -3 -54 -8 -75 -9 -21 -2 -54
-7 -73 -10 -19 -4 -55 -8 -80 -11 -56 -5 -131 -13 -190 -21 -25 -3 -61 -7 -80
-10 -31 -3 -69 -8 -150 -19 -14 -2 -52 -6 -85 -10 -33 -3 -71 -8 -85 -10 -14
-2 -45 -7 -70 -9 -178 -20 -223 -26 -250 -31 -14 -2 -54 -7 -90 -10 -36 -3
-76 -7 -90 -10 -29 -5 -130 -16 -176 -19 -17 -2 -35 -5 -40 -8 -5 -3 -22 -4
-39 -3 -16 2 -34 0 -39 -3 -9 -5 -22 -7 -126 -17 -30 -3 -73 -8 -95 -12 -70
-13 -365 -9 -440 6 -107 21 -140 28 -140 31 0 1 -8 3 -17 6 -10 2 -26 6 -35 8
-10 3 -19 5 -20 6 -2 2 -7 4 -13 5 -5 1 -11 3 -12 5 -2 1 -10 3 -18 5 -26 5
-165 69 -168 77 -2 4 -12 8 -22 8 -10 0 -20 3 -22 8 -1 4 -36 30 -77 57 -83
56 -240 207 -286 275 -16 25 -32 47 -35 50 -20 17 -106 182 -125 237 -20 59
-24 76 -31 133 -3 25 -9 63 -13 85 -4 22 -7 52 -6 68 1 15 -1 27 -5 27 -4 0
-8 215 -9 478 -3 457 -5 558 -15 647 -15 124 -24 168 -70 350 -11 42 -29 102
-38 124 -6 14 -12 28 -12 31 -4 16 -83 171 -105 205 -89 138 -152 216 -256
317 -38 38 -79 77 -90 88 -12 11 -24 20 -28 20 -4 0 -15 8 -25 18 -10 9 -27
23 -38 30 -95 63 -154 100 -154 97 0 -2 -24 7 -54 21 -74 34 -85 36 -211 40
-78 3 -123 -1 -155 -11z"/>
</g>
</svg>
