<svg id="Слой_1" data-name="Слой 1" xmlns="http://www.w3.org/2000/svg" viewBox="0 0 346.5 108.8"><defs><style>.cls-1{fill:#a0abdf;}</style></defs><title>name-logo</title><path class="cls-1" d="M155.9,51.52a15.1,15.1,0,0,1,.78,5.23c0,1.37-.05,1.47,0,3.22a17.89,17.89,0,0,0,.33,3.9,8.26,8.26,0,0,0,4.12,4.56,9.82,9.82,0,0,0,5.68.78c14.66-1.74,22-2.65,31.7-4.38l3-.43h0a35.6,35.6,0,0,1,5.76-.21,1.78,1.78,0,0,1,.86.21,2,2,0,0,1,.85,1.07,2.4,2.4,0,0,1,0,1.28,3.88,3.88,0,0,1-.43,1.06A6.41,6.41,0,0,1,206,69.94a55.91,55.91,0,0,1-9.79,3.38c-1.08.26-3.12.72-6.2,1.53-2.09.55-3.16.86-4.48,1.28-1.48.47-1.82.64-2.39.83-.28.09-.54.16-.81.23-1.6.42-2.56.48-2.56.64s1.26.37,1.92.43c.29,0,.77.06,1.5.15l.42.06a4.62,4.62,0,0,1,1.49.43,3.28,3.28,0,0,1,1.28,1.28,4,4,0,0,1,.37,2.49,6,6,0,0,1-1.45,3.45,6.06,6.06,0,0,1-2.22,1.56,9.92,9.92,0,0,1-2.45.55,7.94,7.94,0,0,1,4.65.45,4.18,4.18,0,0,1,2,2c.9,2.1-.69,4.22-.78,4.34a4.92,4.92,0,0,1-2.3,1.64,12.49,12.49,0,0,1-1.37.36c-.69.14-1,.13-1,.22-.06.29,2.47.34,3.46,1.92a3.8,3.8,0,0,1,.43,2.09,5,5,0,0,1-.65,2.6c-.53.85-1.32,1.24-3.19,1.92a54.38,54.38,0,0,1-6,1.82,46.82,46.82,0,0,1-4.87,1,52.26,52.26,0,0,1-6.18.43,52.68,52.68,0,0,1-6.69,0c-3.52-.33-5.29-.51-7.39-1.67a15.13,15.13,0,0,1-5.41-5.34,19.34,19.34,0,0,1-2.56-6.46,58.47,58.47,0,0,1-1.11-17.69A61.33,61.33,0,0,1,145,63.53c.19-.44.72-2.11,1.78-5.45a6.56,6.56,0,0,0,.33-1.78,8.37,8.37,0,0,0-.22-2.11c-.49-2.81-.54-3.3-.56-3.56a7.3,7.3,0,0,1,.12-2.45,3.25,3.25,0,0,1,.77-1.67,3.21,3.21,0,0,1,2.56-.78,4.56,4.56,0,0,1,1.89.78,9.12,9.12,0,0,1,1.78,1.34A10.28,10.28,0,0,1,155.9,51.52Z" transform="translate(-0.15 -0.25)"/><path class="cls-1" d="M2,2.52,14.8.25,15,19.49q-.84,17.43,17.32,7.22L31.61,1,47.75,4.17l-1.44,50H32.49L32.23,43Q14.7,51.67,5.11,41.61.25,35.12.15,22.69Z" transform="translate(-0.15 -0.25)"/><path class="cls-1" d="M85.4,1Q87.05,9.7,88,16.55q-6.91-.26-12.63-.26.61,21.62,0,37.39H61.83q-1.19-9.43-.93-31.82l0-5.46q-6.45,0-13.46.51A131.62,131.62,0,0,1,49.76,1.29Q64.72,1,85.4,1Z" transform="translate(-0.15 -0.25)"/><path class="cls-1" d="M113.61.56q13,.27,18.25,11.66a27.74,27.74,0,0,1,1.24,10q0,12.84-9.13,24.19-7.36,7.22-18.82,7.22Q91.8,52.6,87.77,39.09a35.5,35.5,0,0,1-1.18-10Q88.07,9,105.1,2A27.6,27.6,0,0,1,113.61.56ZM101.33,30.42q.83,7.23,6.61,7.22,5.31,0,10.72-7.58a15.69,15.69,0,0,0,1.55-8.15q0-7.21-6.29-7.22-6.49,0-11.66,9.44A15.82,15.82,0,0,0,101.33,30.42Z" transform="translate(-0.15 -0.25)"/><path class="cls-1" d="M174.25,1.65,178,.77q13-.67,19.9-.46l6.14,53.11-15.42.36-1.85-18.25-10.89,19L161.67,49l10.11-17q-10.62-2.62-12.22-11.34a12.65,12.65,0,0,1-.11-6Q163.79,4.18,174.25,1.65Zm10.37,10.62a28.59,28.59,0,0,0-8.1,1.49c-1.78.87-2.52,2.17-2.21,3.92q.76,4.23,10.77,3Z" transform="translate(-0.15 -0.25)"/><path class="cls-1" d="M270.79,5.2q8.2,6.66,8.72,14.91L249.08,35.42q2.47,3.82,9.41,4t17.25-8.72l3.92,12.69q-8.55,12.52-31.61,10.21-14.75-5-17.12-22.33-.72-11.44,3.56-19.65,6.34-10.51,19-10.37Q263.73.57,270.79,5.2Zm-25.42,20,17.38-8.56q-4.33-5.78-12.48-2.89Q244.65,17.12,245.37,25.16Z" transform="translate(-0.15 -0.25)"/><path class="cls-1" d="M291.16.92h9.6l10.46,21.87L321.8.92h10.26l14.59,42.55L331.44,53.53l-7.38-23L315.3,53.42l-8.61-.31-6.6-22.43-6.5,24.75-14.34-8.87Z" transform="translate(-0.15 -0.25)"/></svg>